<svg width="54" height="56" viewBox="0 0 54 56" fill="none" xmlns="http://www.w3.org/2000/svg">
    <path d="M17.7388 6.56452C17.7564 6.3637 17.7856 6.1667 17.8257 5.97411C18.3353 3.52862 20.6055 1.79622 23.1556 2.01933L47.0642 4.11107C49.8151 4.35174 51.8501 6.7769 51.6094 9.52782L48.1232 49.3756C47.8825 52.1265 45.4574 54.1615 42.7064 53.9208L18.7978 51.8291C17.982 51.7577 17.2292 51.4942 16.5801 51.0872C15.0401 50.1214 14.0833 48.3475 14.2526 46.4123L17.7388 6.56452Z"
          fill="#1D293D"/>
    <path d="M18.735 6.65167C18.9275 4.45094 20.8677 2.82298 23.0684 3.01552L46.9771 5.10725C49.1778 5.29979 50.8058 7.23992 50.6132 9.44066L47.127 49.2884C46.9344 51.4892 44.9943 53.1171 42.7936 52.9246L18.8849 50.8329C16.6842 50.6403 15.0562 48.7002 15.2488 46.4995L18.735 6.65167Z"
          fill="white"/>
    <path d="M23.9705 31.0396L24.5575 24.3303C24.7727 21.8702 24.8954 19.3231 24.9254 16.689C25.7808 16.5836 26.6616 16.5705 27.5676 16.6498C28.4074 16.7232 29.1018 16.9305 29.651 17.2715C30.2222 17.6144 30.4804 18.099 30.4256 18.7252C30.4158 18.837 30.2924 19.7389 30.0553 21.4309C29.8403 23.1248 29.6829 24.5421 29.5831 25.6827C31.4847 24.5645 33.3827 23.2319 35.2772 21.6849C37.1717 20.138 38.4429 18.7168 39.0906 17.4213C40.0999 17.8476 40.7647 18.2664 41.0851 18.6775C41.4073 19.0663 41.546 19.5178 41.501 20.0322C41.3718 21.5083 38.8723 23.7347 34.0024 26.7116C36.1916 30.9595 37.8887 33.9588 39.0939 35.7093C39.7287 36.5987 40.3665 37.0714 41.0074 37.1275C41.0737 37.1333 41.375 37.1258 41.9112 37.1051C42.0573 37.7264 42.1127 38.2383 42.0775 38.6408C42.0149 39.3565 41.6364 39.8642 40.9421 40.1641C40.2719 40.4435 39.4727 40.5426 38.5446 40.4614C37.3291 40.355 36.1746 39.6794 35.0811 38.4344C33.6432 36.7987 31.9005 33.6828 29.8531 29.0866C29.807 29.1051 29.6084 29.2117 29.2573 29.4064L28.9932 32.4256C28.774 34.9304 28.8514 37.1006 29.2252 38.9362C28.3802 39.1777 27.361 39.2463 26.1676 39.1419C25.7257 39.1032 25.364 39.0378 25.0826 38.9456C24.7992 38.8757 24.4986 38.748 24.1808 38.5624C23.8871 38.3565 23.6805 38.0454 23.561 37.6293C23.4435 37.1909 23.4131 36.6473 23.4699 35.9988C23.507 35.5738 23.5875 34.7809 23.7114 33.6198C23.8372 32.4365 23.9236 31.5764 23.9705 31.0396Z"
          fill="#1D293D"/>
    <path d="M2.19498 15.6577L11.3213 47.4849C11.9941 49.8312 14.2356 51.3028 16.5801 51.0872C15.0401 50.1214 14.0833 48.3475 14.2526 46.4123L17.7388 6.56452C17.7564 6.3637 17.7856 6.1667 17.8257 5.97411L5.6231 9.47315C2.96865 10.2343 1.43383 13.0032 2.19498 15.6577Z"
          fill="#1D293D"/>
    <path d="M17.0059 5.16797C17.8413 2.55558 20.3962 0.774361 23.2432 1.02344L47.1514 3.11523C50.4525 3.40405 52.8943 6.31414 52.6055 9.61523L49.1191 49.4629C48.8303 52.7639 45.9202 55.2058 42.6191 54.917L18.7109 52.8252C17.8513 52.75 17.048 52.4956 16.3359 52.1025C13.6463 52.1977 11.1359 50.465 10.3604 47.7607L1.2334 15.9336C0.320017 12.7483 2.16231 9.4251 5.34766 8.51172L17.0059 5.16797Z"
          stroke="white" stroke-width="2"/>
</svg>
